<?xml version="1.0" encoding="iso-8859-1"?>
<!-- Generator: Adobe Illustrator 21.0.0, SVG Export Plug-In . SVG Version: 6.00 Build 0)  -->
<svg xmlns="http://www.w3.org/2000/svg" xmlns:xlink="http://www.w3.org/1999/xlink" version="1.1" id="Capa_1" x="0px" y="0px" viewBox="0 0 512 512" style="enable-background:new 0 0 512 512;" xml:space="preserve" width="512" height="512">
<g>
	<path style="fill:#FFD54F;" d="M407,473.5H186c-8.284,0-15-6.716-15-15v-384h251v384C422,466.784,415.284,473.5,407,473.5z"/>
	<path style="fill:#FFCA28;" d="M392,74.5v384c0,8.284-6.716,15-15,15h30c8.284,0,15-6.716,15-15v-384H392z"/>
	<path style="fill:#E1F5FE;" d="M402.5,504.5h-212c-2.209,0-4-1.791-4-4v-27h220v27C406.5,502.709,404.709,504.5,402.5,504.5z"/>
	<path style="fill:#B3E5FC;" d="M376.5,473.5v27c0,2.209-1.791,4-4,4h30c2.209,0,4-1.791,4-4v-27H376.5z"/>
	<path style="fill:#E1F5FE;" d="M100.5,201.5v124c0,1.105,0.895,2,2,2h68.063v30H96.82c-14.536,0-26.32-11.784-26.32-26.32V195.82   c0-14.536,11.784-26.32,26.32-26.32H171v30h-68.5C101.395,199.5,100.5,200.395,100.5,201.5z"/>
	<rect x="141" y="327.5" style="fill:#B3E5FC;" width="30" height="30"/>
	<rect x="141" y="169.5" style="fill:#B3E5FC;" width="30" height="30"/>
	<path style="fill:#FFB300;" d="M228,419L228,419c-8.008,0-14.5-6.492-14.5-14.5v-274c0-8.008,6.492-14.5,14.5-14.5h0   c8.008,0,14.5,6.492,14.5,14.5v274C242.5,412.508,236.008,419,228,419z"/>
	<path style="fill:#FFB300;" d="M365,419L365,419c-8.008,0-14.5-6.492-14.5-14.5v-274c0-8.008,6.492-14.5,14.5-14.5l0,0   c8.008,0,14.5,6.492,14.5,14.5v274C379.5,412.508,373.008,419,365,419z"/>
	<path style="fill:#FFB300;" d="M296.5,419L296.5,419c-8.008,0-14.5-6.492-14.5-14.5v-274c0-8.008,6.492-14.5,14.5-14.5l0,0   c8.008,0,14.5,6.492,14.5,14.5v274C311,412.508,304.508,419,296.5,419z"/>
	<path style="fill:#F5F5F5;" d="M412.203,51.695c-4.442-9.357-15.064-13.941-24.764-10.731c-1.031,0.341-2.123-0.207-2.475-1.235   c-3.192-9.317-11.926-16.005-22.202-16.005c-6.552,0-12.475,2.721-16.736,7.107c-0.801,0.825-2.175,0.755-2.886-0.149   c-4.305-5.475-10.935-8.986-18.378-8.986c-6.785,0-12.896,2.917-17.185,7.58c-0.867,0.943-2.408,0.793-3.069-0.305   c-6.919-11.482-21.466-15.62-33.236-9.574c-0.864,0.444-1.923,0.167-2.467-0.638C264.212,11.962,256.503,7.5,247.762,7.5   c-13.01,0-23.742,9.879-25.303,22.642c-0.12,0.984-0.96,1.711-1.951,1.701c-8.388-0.089-15.985,3.955-20.744,10.469   c-0.437,0.598-1.144,0.959-1.877,0.86c-9.71-1.311-18.694,4.674-21.624,13.797c-0.306,0.952-1.264,1.507-2.247,1.322   c-9.988-1.882-19.517,5.783-19.517,16.227c0,13.006,14.188,20.585,24.873,14.208c0.832-0.497,1.892-0.318,2.508,0.429   c7.825,9.489,22.533,9.054,29.822-0.763c0.633-0.853,1.824-1.099,2.686-0.478c5.083,3.67,11.685,4.067,17.088,1.313   c0.918-0.468,2.027-0.168,2.568,0.709c9.01,14.599,30.395,14.811,39.679,0.369c0.561-0.873,1.689-1.157,2.596-0.654   c8.549,4.743,19.457,2.186,24.956-6.06c0.603-0.904,1.872-1.114,2.735-0.455c5.554,4.238,12.97,5.085,19.344,2.167   c0.98-0.449,2.132-0.066,2.605,0.903c3.247,6.643,11.169,5.127,11.873,5.315c5.523,0,10,4.478,10,10.003   c0,11.842,13.696,9.906,14,10.003c5.523,0,10,4.478,10,10.003v31.925c0,33.378,50.167,33.407,50.167,0V88.997   c0.168,0.004,0.331,0.025,0.5,0.025c10.493,0,19-8.509,19-19.005c0-14.016-14.488-22.847-26.704-17.363   C413.807,53.098,412.668,52.674,412.203,51.695z"/>
	<path style="fill:#E6E6E6;" d="M414.796,52.654c-0.989,0.444-2.128,0.021-2.593-0.959c-4.442-9.357-15.063-13.941-24.764-10.731   c-1.031,0.341-2.123-0.207-2.475-1.235c-3.192-9.317-11.926-16.005-22.202-16.005c-5.705,0-10.932,2.065-15.002,5.494   c3.262,2.747,5.783,6.366,7.204,10.511c0.347,1.013,1.426,1.585,2.442,1.246c9.727-3.246,12.781,7.719,20.094,15.071   c10.297,10.351,29-0.045,29,13.971c0,4.124-2.212,7.937-4.908,11.048c-6.336,7.31-9.592,16.796-9.592,26.47v45.921   c0,9.615-4.159,16.454-10.078,20.531C396.571,184.071,422,177.242,422,153.456V88.997c0.168,0.004,0.331,0.025,0.5,0.025   c10.493,0,19-8.509,19-19.005C441.5,56,427.012,47.17,414.796,52.654z"/>
	<path d="M422,216.5c-4.143,0-7.5,3.358-7.5,7.5v234.5c0,4.136-3.364,7.5-7.5,7.5H186c-4.136,0-7.5-3.364-7.5-7.5V448   c0-4.142-3.357-7.5-7.5-7.5s-7.5,3.358-7.5,7.5v10.5c0,9.964,6.51,18.435,15.5,21.385V500.5c0,6.341,5.159,11.5,11.5,11.5h212   c6.341,0,11.5-5.159,11.5-11.5v-20.615c8.99-2.95,15.5-11.421,15.5-21.385V224C429.5,219.858,426.143,216.5,422,216.5z M399,497   H194v-16h205V497z"/>
	<path d="M250,404.5v-274c0-12.131-9.869-22-22-22s-22,9.869-22,22v274c0,12.131,9.869,22,22,22S250,416.631,250,404.5z M221,404.5   v-274c0-3.86,3.141-7,7-7s7,3.14,7,7v274c0,3.86-3.141,7-7,7S221,408.36,221,404.5z"/>
	<path d="M318.5,404.5v-274c0-12.131-9.869-22-22-22s-22,9.869-22,22v274c0,12.131,9.869,22,22,22S318.5,416.631,318.5,404.5z    M289.5,404.5v-274c0-3.86,3.141-7,7-7s7,3.14,7,7v274c0,3.86-3.141,7-7,7S289.5,408.36,289.5,404.5z"/>
	<path d="M436.936,47.811c-6.17-3.994-13.535-5.241-20.468-3.607c-6.009-8.43-16.224-12.881-26.408-11.509   c-5.341-10.02-15.774-16.471-27.298-16.471c-6.434,0-12.556,1.962-17.713,5.609c-5.586-4.906-12.729-7.638-20.287-7.638   c-6.377,0-12.584,2.013-17.752,5.655c-8.769-9.574-22.54-13.181-34.858-8.958C265.941,4.003,257.115,0,247.762,0   c-15.065,0-28.035,10.311-31.857,24.634c-7.787,1.054-15.012,4.91-20.271,10.861c-0.135-0.002-0.271-0.003-0.404-0.003   c-10.278,0-19.701,5.829-24.388,15.013C157.843,50.579,147,61.169,147,74.518c0,10.685,6.776,19.575,16.5,22.775V162h-4.083   c-4.143,0-7.5,3.358-7.5,7.5s3.357,7.5,7.5,7.5h4.083v15h-61c-5.238,0-9.5,4.262-9.5,9.5v124c0,5.238,4.262,9.5,9.5,9.5h61v15   H96.82C86.442,350,78,341.557,78,331.18V195.82C78,185.442,86.442,177,96.82,177h31.93c4.143,0,7.5-3.358,7.5-7.5   s-3.357-7.5-7.5-7.5H96.82C78.172,162,63,177.171,63,195.82v135.36C63,349.828,78.172,365,96.82,365h66.68v50.667   c0,4.142,3.357,7.5,7.5,7.5s7.5-3.358,7.5-7.5V97.315c0.224-0.073,0.447-0.15,0.669-0.23c4.935,4.292,11.284,6.591,17.988,6.427   c6.529-0.167,12.612-2.66,17.277-6.979c5.039,2.209,10.671,2.606,15.974,1.124c5.753,6.785,14.177,10.77,23.312,10.854   c0.1,0.001,0.197,0.001,0.296,0.001c8.982,0,17.325-3.787,23.136-10.344c9.379,3.1,19.871,0.647,26.911-6.248   c5.608,2.696,11.989,3.327,18.024,1.763c8.21,8.742,18.246,2.393,18.246,7.84c0,6.704,3.008,11.803,7.908,14.737   c-3.267,3.84-5.241,8.813-5.241,14.238v274c0,12.131,9.869,22,22,22s22-9.869,22-22V184.594c3.157,0.925,6.498,1.406,9.925,1.406   c6.365,0,12.433-1.66,17.575-4.746V191.5c0,4.142,3.357,7.5,7.5,7.5s7.5-3.358,7.5-7.5V95.583   c11.227-3.079,19.5-13.375,19.5-25.567C449,61.001,444.49,52.7,436.936,47.811z M108,320V207h55.5v113H108z M365,411.5   c-3.859,0-7-3.14-7-7v-274c0-3.635,2.785-6.631,6.333-6.968v29.924c0,10.218,3.73,17.177,7.667,21.677V404.5   C372,408.36,368.859,411.5,365,411.5z M422.653,81.521c-4.704-0.302-8.153,3.287-8.153,7.476v64.459   c0,8.733-5.435,17.544-17.575,17.544c-12.152,0-17.592-8.812-17.592-17.544v-31.925c0-10.083-8.567-18.035-18.307-17.479   c-4.08,0.229-5.229-0.746-5.347-0.857c-0.214-0.202-0.347-0.842-0.347-1.668c0-9.509-7.62-17.271-17.074-17.498   c-1.851-0.125-4.788,0.469-5.56-1.112c-2.269-4.644-7.742-6.59-12.466-4.43c-3.838,1.757-8.312,1.254-11.672-1.31   c-4.292-3.274-10.517-2.254-13.525,2.256c-3.283,4.923-9.902,6.533-15.076,3.663c-4.345-2.411-9.856-1.025-12.543,3.155   c-2.956,4.599-8,7.312-13.559,7.262c-5.537-0.051-10.558-2.86-13.43-7.513c-2.609-4.231-7.925-5.716-12.357-3.453   c-3.006,1.532-6.563,1.257-9.294-0.713c-4.144-2.99-10.02-2.053-13.096,2.089c-2.102,2.83-5.348,4.505-8.906,4.596   c-3.591,0.083-6.867-1.417-9.107-4.132c-2.99-3.628-8.095-4.511-12.139-2.099C169.754,85.73,162,81.611,162,74.518   c0-5.748,5.255-9.87,10.628-8.857c4.69,0.884,9.318-1.867,10.776-6.399c1.869-5.819,7.544-9.461,13.479-8.657   c3.436,0.461,6.856-1.018,8.938-3.868c3.39-4.64,8.771-7.395,14.426-7.395c0.062,0,0.124,0,0.185,0.001   c4.779,0.085,8.886-3.51,9.474-8.291C231.022,21.901,238.7,15,247.762,15c5.918,0,11.462,2.975,14.83,7.959   c2.669,3.948,7.875,5.285,12.107,3.109c8.268-4.247,18.538-1.272,23.387,6.776c3.219,5.337,10.733,6.159,15.012,1.508   c3.059-3.326,7.201-5.158,11.664-5.158c4.874,0,9.423,2.231,12.483,6.123c3.524,4.481,10.209,4.807,14.159,0.739   c3.028-3.117,7.062-4.833,11.357-4.833c6.795,0,12.866,4.395,15.108,10.939c1.676,4.886,7.025,7.542,11.925,5.921   c6.107-2.022,12.826,0.915,15.633,6.827c2.23,4.701,7.696,6.716,12.439,4.585c3.519-1.58,7.6-1.241,10.918,0.907   C432.1,62.548,434,66.052,434,70.017C434,76.31,428.924,81.439,422.653,81.521z"/>
</g>















</svg>
